<?xml version="1.0" encoding="UTF-8"?>
<svg version="1.1" xmlns="http://www.w3.org/2000/svg" width="512" height="512">
<path d="M0 0 C0.91297852 0.16628906 1.82595703 0.33257812 2.76660156 0.50390625 C44.3986228 8.16363077 83.16052206 26.40624883 116 53 C116.54446777 53.44005371 117.08893555 53.88010742 117.64990234 54.33349609 C131.72173929 65.81174863 144.93680647 78.57719064 156 93 C156.75925781 93.93070312 157.51851563 94.86140625 158.30078125 95.8203125 C184.1596216 128.07168914 200.62794761 167.52514646 208 208 C208.16371094 208.83563477 208.32742188 209.67126953 208.49609375 210.53222656 C213.78656862 238.24163521 213.41678597 270.35093304 208 298 C207.83371094 298.91297852 207.66742188 299.82595703 207.49609375 300.76660156 C199.83636923 342.3986228 181.59375117 381.16052206 155 414 C154.55994629 414.54446777 154.11989258 415.08893555 153.66650391 415.64990234 C142.18825137 429.72173929 129.42280936 442.93680647 115 454 C114.06929688 454.75925781 113.13859375 455.51851563 112.1796875 456.30078125 C79.92831086 482.1596216 40.47485354 498.62794761 0 506 C-0.83563477 506.16371094 -1.67126953 506.32742188 -2.53222656 506.49609375 C-30.24163521 511.78656862 -62.35093304 511.41678597 -90 506 C-90.91297852 505.83371094 -91.82595703 505.66742188 -92.76660156 505.49609375 C-134.3986228 497.83636923 -173.16052206 479.59375117 -206 453 C-206.54446777 452.55994629 -207.08893555 452.11989258 -207.64990234 451.66650391 C-221.72173929 440.18825137 -234.93680647 427.42280936 -246 413 C-246.75925781 412.06929688 -247.51851562 411.13859375 -248.30078125 410.1796875 C-274.1596216 377.92831086 -290.62794761 338.47485354 -298 298 C-298.16371094 297.16436523 -298.32742188 296.32873047 -298.49609375 295.46777344 C-303.78656862 267.75836479 -303.41678597 235.64906696 -298 208 C-297.83371094 207.08702148 -297.66742188 206.17404297 -297.49609375 205.23339844 C-289.83636923 163.6013772 -271.59375117 124.83947794 -245 92 C-244.55994629 91.45553223 -244.11989258 90.91106445 -243.66650391 90.35009766 C-232.18825137 76.27826071 -219.42280936 63.06319353 -205 52 C-204.06929688 51.24074219 -203.13859375 50.48148438 -202.1796875 49.69921875 C-169.92831086 23.8403784 -130.47485354 7.37205239 -90 0 C-89.16436523 -0.16371094 -88.32873047 -0.32742188 -87.46777344 -0.49609375 C-59.75836479 -5.78656862 -27.64906696 -5.41678597 0 0 Z M-198.1875 117.3125 C-236.50794279 160.84092243 -252.24431056 216.15541581 -248.79785156 273.35498047 C-244.2433458 325.33649999 -216.90894889 374.29978428 -178.04296875 408.515625 C-133.40364124 444.96057018 -79.07407275 461.56680481 -21.69140625 456.5390625 C30.00720385 450.76531199 80.09716545 423.30079892 113 383 C148.06851826 338.27509847 164.56206435 283.62183215 158.23071289 226.93041992 C151.11512374 174.56222328 123.1037901 124.18604898 80.98828125 91.890625 C4.91415623 34.86033305 -97.36911896 34.52543798 -198.1875 117.3125 Z " fill="#06A7F2" transform="translate(301,3)"/>
<path d="M0 0 C-0.60488397 3.50912577 -1.52575314 6.55322951 -2.93579102 9.81958008 C-3.33971573 10.76186966 -3.74364044 11.70415924 -4.1598053 12.67500305 C-4.60335861 13.69619736 -5.04691193 14.71739166 -5.50390625 15.76953125 C-6.20240944 17.39371223 -6.20240944 17.39371223 -6.9150238 19.05070496 C-8.19209118 22.0179696 -9.47338057 24.98336834 -10.75640869 27.94805908 C-12.11796505 31.09725738 -13.4738389 34.24889968 -14.83007812 37.40039062 C-16.80850145 41.99653028 -18.7884364 46.59201262 -20.77036095 51.1866436 C-25.70954155 62.63761457 -30.62028216 74.10073157 -35.52893066 85.56481934 C-37.99064032 91.31330258 -40.45441226 97.0609018 -42.91796875 102.80859375 C-43.91456065 105.13394759 -44.91114258 107.45930571 -45.90771484 109.78466797 C-47.48846436 113.4730835 -49.06921387 117.16149902 -50.64996338 120.84991455 C-50.92751528 121.49753565 -51.20506718 122.14515675 -51.49102974 122.81240273 C-52.62398529 125.45596568 -53.75694084 128.09952863 -54.88989639 130.74309158 C-55.1698634 131.39634792 -55.4498304 132.04960426 -55.73828125 132.72265625 C-56.5743351 134.67344856 -57.41038895 136.62424088 -58.24644279 138.57503319 C-58.51896433 139.21091677 -58.79148586 139.84680035 -59.07226562 140.50195312 C-59.61694336 141.77286784 -60.16162109 143.04378255 -60.70629883 144.31469727 C-60.97247009 144.93576355 -61.23864136 145.55682983 -61.51287842 146.19671631 C-62.70187378 148.97103882 -62.70187378 148.97103882 -63.89086914 151.74536133 C-64.39674561 152.92573975 -64.90262207 154.10611816 -65.42382812 155.32226562 C-66.82041931 158.58097839 -68.2170105 161.83969116 -69.61360168 165.09840393 C-70.01737534 166.04054245 -70.42114899 166.98268097 -70.8371582 167.95336914 C-71.22297562 168.82836563 -71.60879303 169.70336212 -72.00630188 170.60487366 C-73.01795014 172.91300742 -73.01795014 172.91300742 -73.58488464 175.0532074 C-74.45202712 177.92398533 -75.53961672 179.69526544 -78.03910828 181.34971619 C-80.8394842 182.73950363 -83.67146235 183.9288007 -86.57421875 185.08984375 C-87.65983597 185.54702286 -88.74545319 186.00420197 -89.8639679 186.47523499 C-92.83946049 187.72354422 -95.82284367 188.95013465 -98.81072998 190.168396 C-101.98244667 191.46817166 -105.14214229 192.79650246 -108.30273438 194.12304688 C-112.91329062 196.05576036 -117.52689301 197.98081131 -122.14479256 199.89591408 C-133.66086172 204.6731301 -145.11503662 209.59229997 -156.56628418 214.52261353 C-162.31357992 216.99543814 -168.06518816 219.45819016 -173.81640625 221.921875 C-176.14209773 222.91860138 -178.46778125 223.91534635 -180.79345703 224.91210938 C-187.09694766 227.61331157 -193.40098326 230.31323961 -199.70516968 233.01281738 C-204.24094189 234.95513289 -208.77654416 236.89784511 -213.31210899 238.84064484 C-216.4060901 240.16590849 -219.50019886 241.49087223 -222.59448242 242.81542969 C-226.00983918 244.2774437 -229.42487397 245.74020738 -232.83984375 247.203125 C-233.84039291 247.63119446 -234.84094208 248.05926392 -235.87181091 248.50030518 C-237.2847921 249.10585236 -237.2847921 249.10585236 -238.72631836 249.72363281 C-239.61455292 250.1037854 -240.50278748 250.48393799 -241.41793823 250.87561035 C-244.67977922 252.29601798 -247.90921964 253.783916 -251.13063049 255.29364014 C-253 256 -253 256 -256 256 C-255.39511603 252.49087423 -254.47424686 249.44677049 -253.06420898 246.18041992 C-252.66028427 245.23813034 -252.25635956 244.29584076 -251.8401947 243.32499695 C-251.17486473 241.79320549 -251.17486473 241.79320549 -250.49609375 240.23046875 C-250.03042496 239.14768143 -249.56475616 238.0648941 -249.0849762 236.94929504 C-247.80790882 233.9820304 -246.52661943 231.01663166 -245.24359131 228.05194092 C-243.88203495 224.90274262 -242.5261611 221.75110032 -241.16992188 218.59960938 C-239.19149855 214.00346972 -237.2115636 209.40798738 -235.22963905 204.8133564 C-230.29045845 193.36238543 -225.37971784 181.89926843 -220.47106934 170.43518066 C-218.00935968 164.68669742 -215.54558774 158.9390982 -213.08203125 153.19140625 C-212.08543935 150.86605241 -211.08885742 148.54069429 -210.09228516 146.21533203 C-185.1628418 88.04663086 -185.1628418 88.04663086 -183.99369812 85.39512634 C-182.98204986 83.08699258 -182.98204986 83.08699258 -182.41511536 80.9467926 C-181.54797288 78.07601467 -180.46038328 76.30473456 -177.96089172 74.65028381 C-175.1605158 73.26049637 -172.32853765 72.0711993 -169.42578125 70.91015625 C-168.34016403 70.45297714 -167.25454681 69.99579803 -166.1360321 69.52476501 C-163.16053951 68.27645578 -160.17715633 67.04986535 -157.18927002 65.831604 C-154.01755333 64.53182834 -150.85785771 63.20349754 -147.69726562 61.87695312 C-143.08670938 59.94423964 -138.47310699 58.01918869 -133.85520744 56.10408592 C-122.33913828 51.3268699 -110.88496338 46.40770003 -99.43371582 41.47738647 C-93.68642008 39.00456186 -87.93481184 36.54180984 -82.18359375 34.078125 C-79.85790227 33.08139862 -77.53221875 32.08465365 -75.20654297 31.08789062 C-68.90305234 28.38668843 -62.59901674 25.68676039 -56.29483032 22.98718262 C-51.75905811 21.04486711 -47.22345584 19.10215489 -42.68789101 17.15935516 C-39.5939099 15.83409151 -36.49980114 14.50912777 -33.40551758 13.18457031 C-29.99016082 11.7225563 -26.57512603 10.25979262 -23.16015625 8.796875 C-22.15960709 8.36880554 -21.15905792 7.94073608 -20.12818909 7.49969482 C-19.18620163 7.0959967 -18.24421417 6.69229858 -17.27368164 6.27636719 C-16.38544708 5.8962146 -15.49721252 5.51606201 -14.58206177 5.12438965 C-11.32022078 3.70398202 -8.09078036 2.216084 -4.86936951 0.70635986 C-3 0 -3 0 0 0 Z " fill="#06A7F2" transform="translate(384,128)"/>
</svg>
